<?xml version="1.0" encoding="UTF-8"?>
<svg id="Capa_1" data-name="Capa 1" xmlns="http://www.w3.org/2000/svg" viewBox="0 0 200 100">
  <defs>
    <style>
      .cls-1 {
        fill: #7d421c;
      }

      .cls-2 {
        fill: #884a20;
      }

      .cls-3 {
        fill: #583115;
      }

      .cls-4 {
        fill: #904f22;
      }
    </style>
  </defs>
  <path class="cls-2" d="M183,66.5c-1.58,1.61-3.66,2.54-5.29,3.16-5.38,2.07-11.03,2.71-16.18,2.71-3.83,0-7.38-.35-10.31-.73-1.16-.15-2.38-.39-3.57-.63-2.71-.55-5.52-1.12-8.02-.63-.92.18-1.81.37-2.71.57-2.85.62-5.55,1.2-8.55,1.32-4.37.19-8.79-.34-13.05-.86-2.98-.36-6.06-.74-9.09-.85-4.12-.16-7.95.2-12,.59l-.24.02c-4.22.4-8.44-.48-12.5-1.34l-.39-.08c-8.86-1.86-17.49-3.35-25.74-1.14-1.03.28-2.07.62-3.08.95-1.34.44-2.71.89-4.12,1.21-4.92,1.12-9.87.13-14.66-.83-2.02-.4-4.12-.82-6.16-1.07-1.64-.19-3.32-.39-4.96-.82-.85-.22-1.67-.5-2.48-.88-2.71-1.26-4.59-3.46-5.03-5.89-.9-4.94,3.3-11.61,7.43-15.23.78-.69,1.55-1.26,2.29-1.7,5.32-3.14,11.58-3.15,17.64-3.15,1.54,0,3,0,4.45-.06,6.1-.22,11.3-1.6,15.45-4.08,1.69-1,3.31-2.26,4.87-3.47,3.11-2.41,6.32-4.89,10.26-5.67,6.64-1.31,12.88,2.53,18.7,6.57,1.81,1.26,4.05,2.82,6.47,2.87,2.24.05,4.31-1.17,6.34-2.35l.67-.39c6.34-3.64,12.5-5.33,18.29-5,4.41.25,8.68,1.82,12.02,4.44,1.59,1.24,2.61,2.81,3.59,4.33,1.14,1.75,2.21,3.4,4.12,4.62,4.57,2.92,10.15,3.92,15.54,4.88.92.16,1.85.33,2.76.5.89.17,1.82.36,2.76.58,1.35.31,2.73.68,4.11,1.13,3.61,1.2,7.15,2.98,9.82,5.83.28.3.56.61.82.93.78.97,1.32,1.89,1.62,2.79.05.13.08.26.11.38.02.09.05.18.07.26.02.12.05.24.07.34.32,2.01-.49,4.21-2.16,5.9Z"/>
  <path class="cls-1" d="M183,66.5c-1.58,1.61-3.66,2.54-5.29,3.16-5.38,2.07-11.03,2.71-16.18,2.71-3.83,0-7.38-.35-10.31-.73-1.16-.15-2.38-.39-3.57-.63-2.71-.55-5.52-1.12-8.02-.63-.92.18-1.81.37-2.71.57-2.85.62-5.55,1.2-8.55,1.32-4.37.19-8.79-.34-13.05-.86-2.98-.36-6.06-.74-9.09-.85-4.12-.16-7.95.2-12,.59l-.24.02c-4.22.4-8.44-.48-12.5-1.34l-.39-.08c-8.86-1.86-17.49-3.35-25.74-1.14-1.03.28-2.07.62-3.08.95-1.34.44-2.71.89-4.12,1.21-4.92,1.12-9.87.13-14.66-.83-2.02-.4-4.12-.82-6.16-1.07-1.64-.19-3.32-.39-4.96-.82.37-.45.81-.84,1.32-1.14,1.04-.61,2.24-.86,3.43-1.1,1.37-.28,2.76-.56,4.15-.4.96.11,1.89.44,2.85.53,1.95.19,3.85-.56,5.66-1.29,3.91-1.57,8.39-3.92,12.73-3.84,1.58.02,3.06.74,4.54,1.29,5.25,1.95,11.2,1.96,16.45.02,5.49-2.04,11.12-6.18,16.61-4.13,2.15.8,3.86,2.47,5.87,3.57,4.27,2.33,9.51,1.9,14.24.8,5.76-1.34,11.66-3.58,17.42-2.25,4.04.94,7.7,3.6,11.85,3.55,5.61-.06,10.45-5.09,16.04-4.53,1.68.17,3.26.84,4.87,1.36,2.27.74,4.63,1.18,7.02,1.33,1.3.08,3.21.13,4.39-.54,1.21-.68,1.67-2.14,2.99-2.79,1.03-.51,2.29-.47,3.27-1.08,1.42-.89,2.33-2.45,4.19-1.6.06.03.13.06.19.1.28.3.56.61.82.93.78.97,1.32,1.89,1.62,2.79.05.13.08.26.11.38.02.09.05.18.07.26.02.12.05.24.07.34.32,2.01-.49,4.21-2.16,5.9Z"/>
  <path class="cls-4" d="M168.55,48.94c-1.45,1.28-3.27,2.22-5.14,2.66-4.3,1.01-8.78.02-13.06-1.05-4.28-1.06-8.7-2.21-13.05-1.5-2.01.33-3.94,1.04-5.96,1.26-6.27.68-12.01-3.43-18.24-4.43-5.02-.81-10.12.44-15.11,1.38-4.99.94-10.03,1.58-15.09,1.92-2.52.18-5.15.25-7.46-.78-1.53-.68-2.82-1.8-4.33-2.5-7.41-3.42-15.78,4.36-23.8,2.84-1.99-.38-3.84-1.33-5.83-1.69-3.43-.61-6.89.56-10.34,1.05-2.57.36-7.04.3-8.8-2.08.78-.69,1.55-1.26,2.29-1.7,5.32-3.14,11.58-3.15,17.64-3.15,1.54,0,3,0,4.45-.06,6.1-.22,11.3-1.6,15.45-4.08,1.69-1,3.31-2.26,4.87-3.47,3.11-2.41,6.32-4.89,10.26-5.67,6.64-1.31,12.88,2.53,18.7,6.57,1.81,1.26,4.05,2.82,6.47,2.87,2.24.05,4.31-1.17,6.34-2.35l.67-.39c6.34-3.64,12.5-5.33,18.29-5,4.41.25,8.68,1.82,12.02,4.44,1.59,1.24,2.61,2.81,3.59,4.33,1.14,1.75,2.21,3.4,4.12,4.62,4.57,2.92,10.15,3.92,15.54,4.88.92.16,1.85.33,2.76.5.89.17,1.82.36,2.76.58Z"/>
  <g>
    <path class="cls-3" d="M65.4,53.09c-1.87-.81-4.02-.65-5.48.41-.53.39-.98.88-1.41,1.35-.68.75-1.33,1.46-2.17,1.56-.71.09-1.45-.29-2.22-.69l-.22-.11c-2.08-1.06-5.2-2.14-8.26-1.2-2.69.83-5.2,3.66-4.55,6.8.06.29.31.48.59.48.04,0,.08,0,.12-.01.33-.07.54-.39.47-.71-.49-2.4,1.53-4.73,3.72-5.4,2.67-.82,5.47.15,7.35,1.12l.22.11c.86.44,1.83.95,2.91.82,1.29-.15,2.12-1.06,2.92-1.94.41-.45.8-.87,1.23-1.19,1.12-.81,2.81-.92,4.3-.28,1.29.56,2.46,1.62,3.49,3.17.18.28.56.35.84.17.28-.18.35-.56.17-.84-1.16-1.74-2.51-2.96-4.02-3.61Z"/>
    <path class="cls-3" d="M109.68,49.81c-.58.15-1.16.38-1.72.61-1.21.49-2.36.96-3.27.43-.63-.37-.97-1.13-1.32-1.93-.15-.35-.31-.72-.51-1.06-.97-1.76-2.83-2.96-4.84-3.11-2.01-.16-4.02.74-5.26,2.33-.51.66-.68,1.29-.51,1.86.1.32.43.5.75.4.32-.1.5-.43.4-.75-.05-.17.06-.45.3-.77.97-1.25,2.63-1.99,4.21-1.86,1.58.12,3.1,1.1,3.87,2.49.16.3.31.62.46.96.4.91.84,1.93,1.82,2.5,1.42.82,2.96.2,4.32-.36.55-.22,1.06-.43,1.56-.56,1.48-.38,3.15.05,4.26,1.09,1.11,1.04,1.66,2.67,1.4,4.17-.06.33.16.64.49.7.04,0,.07,0,.11,0,.29,0,.54-.21.59-.5.34-1.89-.36-3.96-1.76-5.27-1.41-1.31-3.52-1.85-5.38-1.38Z"/>
    <path class="cls-3" d="M162.86,63.07c-.91-1.2-2.4-1.91-3.92-1.9-.73.01-1.43.19-2.11.36-1.02.25-1.98.49-2.79.13-.67-.3-1.14-.97-1.63-1.68-.22-.31-.44-.63-.68-.93-1.64-1.99-4.52-2.89-7-2.21-2.48.69-4.49,2.95-4.87,5.5-.05.33.18.64.51.69.33.04.64-.18.69-.51.31-2.09,1.96-3.95,4-4.51,2.04-.57,4.4.18,5.75,1.81.22.26.41.55.62.85.57.81,1.15,1.66,2.13,2.09,1.19.53,2.4.23,3.57-.06.65-.16,1.26-.31,1.85-.32,1.12-.03,2.25.52,2.93,1.42.68.9.9,2.13.58,3.21-.1.32.08.66.4.75.06.02.12.03.17.03.26,0,.5-.17.58-.43.44-1.44.14-3.09-.77-4.29Z"/>
  </g>
</svg>